<?xml version="1.0" standalone="no"?><!DOCTYPE svg PUBLIC "-//W3C//DTD SVG 1.1//EN" "http://www.w3.org/Graphics/SVG/1.1/DTD/svg11.dtd"><svg t="1735109239852" class="icon" viewBox="0 0 1128 1024" version="1.1" xmlns="http://www.w3.org/2000/svg" p-id="8205" xmlns:xlink="http://www.w3.org/1999/xlink" width="220.3125" height="200"><path d="M664.409039 1024h-225.357762v-292.285619A123.965643 123.965643 0 0 0 315.085634 607.748737h-256.688907a33.482803 33.482803 0 0 1 4.605301-10.758285c0-0.264239 16.118553-26.423858 8.870866-42.504663a22.271538 22.271538 0 0 0-18.04372-12.003981c-0.45298 0-45.902016-3.774837-52.847716-23.215247-3.01987-8.153648 1.132451-17.930475 12.268219-29.066244 0.943709-1.283445 95.125889-127.438493 83.839128-151.937184a22.007299 22.007299 0 0 1-9.814576-13.589413 62.624544 62.624544 0 0 1 14.419877-47.600693 317.72802 317.72802 0 0 1 45.298042-134.988167 278.205478 278.205478 0 0 1 96.182844-94.710657A372.765142 372.765142 0 0 1 423.687691 0.301987s4.529804-0.301987 12.079478-0.301987a403.303572 403.303572 0 0 1 156.165002 32.652339 309.536624 309.536624 0 0 1 172.057065 188.100122 282.131308 282.131308 0 0 1 11.551001 158.543149 339.735319 339.735319 0 0 0-111.131198 643.911674v0.641723z m-305.346555 0H259.822022c0.301987-1.84967 30.651675-186.665684 0.641723-222.111402a15.363586 15.363586 0 0 0-12.003982-5.964242 20.384119 20.384119 0 0 0-6.605964 1.207948 633.040145 633.040145 0 0 1-83.046412 6.605964c-44.354333 0-69.079515-7.549674-73.458325-22.649021a123.739153 123.739153 0 0 1 2.227154-67.947064 46.241752 46.241752 0 0 0-1.132451-25.517897h228.641869A44.543075 44.543075 0 0 1 358.91149 732.318354v291.492904z" fill="#2C2C2C" p-id="8206"></path><path d="M1037.815903 934.347624a307.045232 307.045232 0 1 1 90.180853-217.355107 307.045232 307.045232 0 0 1-90.180853 217.355107z m-217.241862 30.198695a247.704796 247.704796 0 1 0-175.378922-72.552365 247.704796 247.704796 0 0 0 175.378922 72.552365z" fill="#2C2C2C" p-id="8207"></path><path d="M683.962694 614.505695m37.748369 0l26.990083 0q37.748369 0 37.748369 37.748369l0 129.439157q0 37.748369-37.748369 37.748369l-26.990083 0q-37.748369 0-37.748369-37.748369l0-129.439157q0-37.748369 37.748369-37.748369Z" fill="#2C2C2C" p-id="8208"></path><path d="M854.736314 614.505695m37.748369 0l26.990084 0q37.748369 0 37.748369 37.748369l0 129.439157q0 37.748369-37.748369 37.748369l-26.990084 0q-37.748369 0-37.748369-37.748369l0-129.439157q0-37.748369 37.748369-37.748369Z" fill="#2C2C2C" p-id="8209"></path></svg>