<?xml version="1.0" standalone="no"?><!DOCTYPE svg PUBLIC "-//W3C//DTD SVG 1.1//EN" "http://www.w3.org/Graphics/SVG/1.1/DTD/svg11.dtd"><svg t="1735109406520" class="icon" viewBox="0 0 1024 1024" version="1.1" xmlns="http://www.w3.org/2000/svg" p-id="13061" xmlns:xlink="http://www.w3.org/1999/xlink" width="200" height="200"><path d="M305 249.1C43.8 346.1 48.7 684.8 51.2 860.3c0.1 8.2 0.3 16 0.3 23 87.4 11.8 152 14.1 198.9 3.8 45.7-9.9 74.5-32.4 93-71 29.2-60.9 31.8-169.2 30.9-241.2l46.9-31.1c1.8 71.9 3.5 212.9-35 293-25.3 52.8-64.4 83.7-125.8 96.9-56.3 12.3-131.8 8.9-234.5-6-12.2-1-21.8-11.3-21.8-23.8 0-19.2-0.1-30.6-0.3-43.2-2.8-187-8.1-547.9 284.6-656.6 54.1-20.1 87.6-11.8 108.4 12.4 19 22.1 23.8 55.7 23.8 91.8v45L373 385.1v-76.6c0-26.2-2.4-49.4-12.1-60.7-7.8-8.9-24.3-10.4-55.9 1.3z m430.7-44.7c292.5 108.6 287.4 469.4 284.7 656.5-0.1 12.4-0.4 24-0.4 43.2 0 12.5-9.6 22.8-21.8 23.8-102.7 14.9-178.2 18.2-234.7 6C702 920.5 663 889.8 637.7 837c-38.5-80.1-36.7-221.1-35-293l47 31.1c-1 72.1 1.7 180.3 30.9 241.2 18.5 38.6 47.4 61.1 93.2 71 47 10.2 111.5 7.9 199-3.8 0.1-6.8 0.1-14.8 0.3-23 2.5-175.5 7.4-514.1-253.9-611.2-31.6-11.7-48.1-10.2-55.9-1.3-9.6 11.3-12.1 34.4-12.1 60.7v76.6l-47.7-31.8v-45c0-36.1 4.9-69.6 23.8-91.8 20.9-24.3 54.2-32.5 108.4-12.3zM527.9 354.1V74.2c0-8.8 7.1-15.9 15.9-15.9s15.8 7.1 15.8 15.9v279.9c0 9.1 5 11.8 11.5 16.3 56.2 37.2 98.2 65 133.1 90.4 26.3 14.3 53.9 21.6 79.5 22.7 27.4 1.3 52.1-4.5 69.8-15.5 7.4-4.6 17.2-2.4 21.8 5.2 4.6 7.4 2.4 17.3-5.1 21.9-22.9 14.3-54.1 21.7-87.9 20.2-3.6-0.1-7.2-0.4-10.8-0.8 37.5 33.4 72 71.3 119.7 129.5 5.6 6.8 4.6 16.8-2.2 22.3-6.8 5.6-16.7 4.6-22.2-2.1-107.1-130.8-145.7-156.3-313.2-267.4-15.8-10.6-25.7-22.3-25.7-42.7zM470.3 397C302.8 508 264.1 533.5 157.2 664.1c-5.6 6.7-15.6 7.7-22.2 2.1-6.8-5.6-7.6-15.6-2.2-22.3 47.7-58.2 82.2-96.1 119.7-129.5-3.6 0.4-7.2 0.7-10.8 0.8-33.8 1.5-65.1-5.8-87.9-20.2-7.4-4.6-9.7-14.5-5.1-21.9 4.6-7.4 14.5-9.7 21.8-5.2 17.7 11 42.4 16.7 69.8 15.5 25.6-1.1 53.1-8.2 79.5-22.7 34.9-25.3 76.9-53.1 133.1-90.4 6.5-4.3 11.5-7.1 11.5-16.3V74.2c0-8.8 7.1-15.9 15.9-15.9s15.8 7.1 15.8 15.9v279.9c0.1 20.6-9.9 32.3-25.8 42.9z m55 19c-11.5-7.7-15-7.7-26.6 0-191 126.9-217.4 144.3-362.6 326.4-5.4 6.8-4.3 16.9 2.5 22.3 6.8 5.4 16.8 4.3 22.2-2.5 35.2-44.1 63.1-78.4 88.3-106.8 0 7.8 0.4 15.5 1.2 23.1 2.2 23 7.8 45 16.5 64.3 3.6 7.9 13.1 11.6 21 7.9 7.9-3.6 11.5-13 7.9-21-7.4-16.2-12-34.8-13.9-54.3-1.8-18.7-1.3-38 1.8-57.2 58.9-60.3 112.3-95.9 228.3-172.8C628 522.3 681.2 557.9 740.3 618.2c3.1 19.2 3.6 38.6 1.8 57.2-1.9 19.5-6.5 38.2-13.9 54.3-3.6 7.9 0 17.4 7.9 21 7.9 3.6 17.4 0 21-7.9 8.8-19.4 14.2-41.2 16.5-64.3 0.7-7.7 1.1-15.3 1.1-23.1 25.2 28.4 53.1 62.7 88.3 106.8 5.4 6.8 15.4 7.9 22.2 2.5 6.8-5.4 8.1-15.5 2.5-22.3C742.8 560.3 716.4 542.9 525.3 416z" fill="#D81E06" p-id="13062"></path></svg>